<svg width="48" height="49" viewBox="0 0 48 49" fill="none" xmlns="http://www.w3.org/2000/svg">
    <mask id="mask0_1_14750" style="mask-type:luminance" maskUnits="userSpaceOnUse" x="0" y="0" width="48" height="49">
    <path d="M0 0.428852H47.9999V48.4287H0V0.428852Z" fill="white"/>
    </mask>
    <g mask="url(#mask0_1_14750)">
    <path d="M16.1865 30.9235C17.1406 30.1642 17.2947 28.7653 16.5347 27.8149C15.772 26.8618 14.3715 26.7078 13.4202 27.467L9.90971 30.2732C8.95561 31.0323 8.80158 32.4341 9.56152 33.3844C10.3215 34.3349 11.7247 34.4915 12.6761 33.7296" stroke="#175730" stroke-width="1.4" stroke-miterlimit="10" stroke-linecap="round" stroke-linejoin="round"/>
    <path d="M15.4448 37.1859C14.4908 37.9478 14.3367 39.3469 15.0967 40.2972C15.8568 41.2503 17.2598 41.4042 18.2113 40.645L21.7217 37.8389C22.6757 37.0796 22.8299 35.678 22.0698 34.7276C21.3072 33.7772 19.9067 33.6206 18.9553 34.3825" stroke="#175730" stroke-width="1.4" stroke-miterlimit="10" stroke-linecap="round" stroke-linejoin="round"/>
    <path d="M18.2121 40.6452C17.2607 41.4045 17.1039 42.8062 17.8665 43.7566C18.6266 44.7069 20.0271 44.8636 20.9811 44.1017L22.9449 42.5301C23.8963 41.7709 24.0531 40.3718 23.293 39.4214C22.5305 38.4684 21.1299 38.3144 20.1786 39.0736" stroke="#175730" stroke-width="1.4" stroke-miterlimit="10" stroke-linecap="round" stroke-linejoin="round"/>
    <path d="M32.814 31.7253L35.3226 33.7297C36.2739 34.4916 36.4307 35.8907 35.6707 36.8411C34.9079 37.7914 33.5074 37.9481 32.5561 37.1862L29.835 35.0146" stroke="#175730" stroke-width="1.4" stroke-miterlimit="10" stroke-linecap="round" stroke-linejoin="round"/>
    <path d="M29.8358 35.0143L32.557 37.1858C33.5083 37.9477 33.6652 39.3469 32.9024 40.2973C32.1424 41.2503 30.7394 41.4042 29.7879 40.645L27.0693 38.4708" stroke="#175730" stroke-width="1.4" stroke-miterlimit="10" stroke-linecap="round" stroke-linejoin="round"/>
    <path d="M27.0692 38.4712L28.4271 39.5569C29.3785 40.3188 29.5354 41.7179 28.7752 42.6683C28.0126 43.6214 26.6121 43.7753 25.6608 43.016L23.6836 41.4365" stroke="#175730" stroke-width="1.4" stroke-miterlimit="10" stroke-linecap="round" stroke-linejoin="round"/>
    <path d="M45.2541 22.991L46.8831 25.8687C47.2604 26.5377 47.0239 27.4005 46.3516 27.7722L43.8403 29.1633C43.1679 29.535 42.3122 29.3014 41.935 28.635L34.696 15.8312C34.316 15.1621 34.5525 14.302 35.2248 13.9305L37.7388 12.5393C38.4111 12.1677 39.2641 12.3987 39.6416 13.0676L41.1111 15.664" stroke="#175730" stroke-width="1.4" stroke-miterlimit="10" stroke-linecap="round" stroke-linejoin="round"/>
    <path d="M37.9141 30.1299C38.5067 28.8504 39.7982 27.9026 41.2811 27.4778" stroke="#175730" stroke-width="1.4" stroke-miterlimit="10" stroke-linecap="round" stroke-linejoin="round"/>
    <path d="M35.3234 33.7296C36.2747 34.4915 37.6778 34.3349 38.438 33.3844C39.2005 32.4342 39.0439 31.0323 38.0924 30.2732L35.0497 27.8414C33.5721 26.6627 31.9032 25.3565 30.3194 24.2203C27.4546 22.1682 26.0436 20.8037 22.4534 21.5257C19.7401 22.0727 17.545 21.2443 16.9737 18.8949C16.6069 17.3844 17.8931 16.6809 20.4417 16.4552L24.5076 16.0915C25.3101 16.0198 25.7884 15.9456 27.0879 16.3995L29.5407 17.2569C31.199 17.8357 30.9758 17.9896 32.7004 17.4906L35.2198 16.7605" stroke="#175730" stroke-width="1.4" stroke-miterlimit="10" stroke-linecap="round" stroke-linejoin="round"/>
    <path d="M12.7744 13.9305L10.2631 12.5393C9.59084 12.1677 8.7351 12.3987 8.35775 13.0677L1.11887 25.8688C0.738808 26.5378 0.975432 27.4006 1.64762 27.7722L4.15898 29.1633C4.83126 29.535 5.68701 29.3014 6.06435 28.6351L13.3033 15.8312C13.6832 15.1622 13.4468 14.3021 12.7744 13.9305Z" stroke="#175730" stroke-width="1.4" stroke-miterlimit="10" stroke-linecap="round" stroke-linejoin="round"/>
    <path d="M16.9813 17.9629L12.7852 16.7471" stroke="#175730" stroke-width="1.4" stroke-miterlimit="10" stroke-linecap="round" stroke-linejoin="round"/>
    <path d="M10.0874 30.1299C9.49211 28.8504 8.20061 27.9026 6.71777 27.4778" stroke="#175730" stroke-width="1.4" stroke-miterlimit="10" stroke-linecap="round" stroke-linejoin="round"/>
    <path d="M24 9.04834V4.27254" stroke="#175730" stroke-width="1.4" stroke-miterlimit="10" stroke-linecap="round" stroke-linejoin="round"/>
    <path d="M17.7441 11.0264L15.2461 7.06291" stroke="#175730" stroke-width="1.4" stroke-miterlimit="10" stroke-linecap="round" stroke-linejoin="round"/>
    <path d="M30.2578 11.0264L32.7531 7.06291" stroke="#175730" stroke-width="1.4" stroke-miterlimit="10" stroke-linecap="round" stroke-linejoin="round"/>
    <path d="M12.6759 33.7297L17.733 29.6892C18.6844 28.93 20.0876 29.0866 20.8476 30.0369C21.6076 30.9873 21.4535 32.3864 20.4995 33.1484L15.445 37.1862C14.491 37.9481 13.0905 37.7914 12.3304 36.8411C11.5678 35.8907 11.7246 34.4916 12.6759 33.7297Z" stroke="#175730" stroke-width="1.4" stroke-miterlimit="10" stroke-linecap="round" stroke-linejoin="round"/>
    <path d="M43.1787 19.3301V19.3275" stroke="#175730" stroke-width="1.4" stroke-miterlimit="10" stroke-linecap="round" stroke-linejoin="round"/>
    </g>
    </svg>
    