<svg width="49" height="49" viewBox="0 0 49 49" fill="none" xmlns="http://www.w3.org/2000/svg">
<path fill-rule="evenodd" clip-rule="evenodd" d="M32.5985 29.8966C32.859 30.1407 32.8698 30.5476 32.6257 30.8026L28.8279 34.8283C28.5762 35.0932 28.157 35.0961 27.9056 34.8391L26.0284 32.9619C25.7788 32.7123 25.7788 32.3055 26.0284 32.0505C26.278 31.8009 26.6848 31.8009 26.9398 32.0505L28.3504 33.4611L31.6871 29.9237C31.9366 29.6633 32.3436 29.6524 32.5985 29.8966ZM33.1248 36.3095C35.1865 34.2424 35.1865 30.8895 33.1248 28.8224C31.0631 26.7607 27.7048 26.7607 25.6431 28.8224C23.5761 30.8895 23.5761 34.2424 25.6431 36.3095C27.7078 38.374 31.0658 38.3685 33.1248 36.3095ZM34.0362 27.9163C31.47 25.3501 27.2979 25.3501 24.7316 27.9163C22.1654 30.4771 22.1654 34.6546 24.7316 37.2209C27.2944 39.7837 31.4725 39.7792 34.0362 37.2209C36.6025 34.6547 36.6025 30.4771 34.0362 27.9163ZM40.3732 44.6428L37.514 41.7837L38.5991 40.6986L41.4637 43.5577L40.3732 44.6428ZM35.7724 38.957C35.8321 38.8973 35.8863 38.8431 35.9406 38.7835L37.3187 40.1561L36.9768 40.5033L35.5987 39.1252C35.6584 39.0709 35.7181 39.0167 35.7724 38.957ZM23.9016 38.0455C26.9263 41.0701 31.8421 41.0697 34.861 38.0455C37.8829 35.0235 37.8829 30.1081 34.861 27.0862C31.839 24.0642 26.9236 24.0642 23.9016 27.0862C20.8796 30.1081 20.8796 35.0236 23.9016 38.0455ZM12.4431 34.6818H20.5976C19.8923 31.7249 20.6898 28.4806 22.9902 26.1747C25.3883 23.7766 28.8062 23.0117 31.8553 23.8744V18.7257L21.7423 8.61268C21.6793 8.54949 21.6045 8.49935 21.5221 8.46514C21.4397 8.43092 21.3513 8.41331 21.2621 8.41331C21.1729 8.41331 21.0846 8.43092 21.0022 8.46514C20.9198 8.49935 20.845 8.54949 20.782 8.61268L10.6691 18.7257V32.8643C10.6691 33.868 11.4665 34.6818 12.4431 34.6818ZM7.86413 18.1017C7.42282 17.6604 7.42291 16.937 7.86413 16.4958L18.487 5.86746C20.0061 4.34836 22.4855 4.34836 24.0101 5.86746L34.6602 16.4958C35.3814 17.2072 34.869 18.4327 33.8573 18.4327C33.5534 18.4327 33.2659 18.3134 33.0543 18.1018L22.6538 7.70116C21.8861 6.93345 20.6414 6.93585 19.8706 7.70116L9.47002 18.1017C9.0288 18.5429 8.30534 18.5429 7.86413 18.1017ZM42.3805 42.6572L39.5051 39.7817C39.2067 39.4778 38.7943 39.3639 38.4037 39.4236L36.7653 37.7851C39.2556 34.2586 38.93 29.3323 35.7725 26.1747C34.9912 25.3935 34.096 24.7804 33.1466 24.3464V19.6154C34.6627 20.0847 36.2824 18.9646 36.2824 17.2988C36.2824 16.6477 36.0328 16.0401 35.5717 15.5843L24.9161 4.95594C22.8925 2.93226 19.5993 2.93774 17.5755 4.96142L6.95261 15.5844C5.45414 17.0829 6.48192 19.7185 8.66707 19.7185C8.9112 19.7185 9.15533 19.686 9.38323 19.6154V32.8643C9.38323 34.5788 10.7558 35.9731 12.4431 35.9731H21.0099C23.1998 41.3804 29.8954 43.2779 34.6005 39.9499L36.239 41.5884C36.1721 41.9899 36.3068 42.397 36.5971 42.6843L39.4726 45.5652C39.9657 46.0587 40.789 46.0555 41.2792 45.5652L42.3806 44.4639C42.8781 43.9607 42.8805 43.1571 42.3805 42.6572ZM18.6769 21.3624C18.6769 21.5469 18.525 21.6988 18.335 21.6988H15.8393C15.6494 21.6988 15.4975 21.5469 15.4975 21.3624V18.8613C15.4975 18.6768 15.6494 18.5249 15.8393 18.5249H18.335C18.5249 18.5249 18.6769 18.6767 18.6769 18.8613V21.3624ZM18.3351 17.2337C19.2358 17.2337 19.9628 17.9661 19.9628 18.8613V21.3623C19.9628 22.2575 19.2358 22.9846 18.3351 22.9846H15.8394C14.9388 22.9846 14.2117 22.2575 14.2117 21.3623V18.8613C14.2117 17.9661 14.9388 17.2337 15.8394 17.2337H18.3351ZM18.6769 29.7121C18.6769 29.902 18.525 30.0485 18.335 30.0485H15.8393C15.6494 30.0485 15.4975 29.902 15.4975 29.7121V27.211C15.4975 27.0265 15.6494 26.8747 15.8393 26.8747H18.335C18.5249 26.8747 18.6769 27.0265 18.6769 27.211V29.7121ZM18.3351 25.5888C19.2358 25.5888 19.9628 26.3158 19.9628 27.211V29.7121C19.9628 30.6073 19.2358 31.3398 18.3351 31.3398H15.8394C14.9388 31.3398 14.2117 30.6073 14.2117 29.7121V27.211C14.2117 26.3158 14.9388 25.5888 15.8394 25.5888H18.3351ZM23.8527 18.8613C23.8532 18.7722 23.8888 18.6869 23.9518 18.6239C24.0148 18.5609 24.1 18.5253 24.1891 18.5249H26.6902C26.7793 18.5253 26.8646 18.5609 26.9276 18.6239C26.9906 18.6869 27.0262 18.7722 27.0266 18.8613V21.3623C27.0261 21.4514 26.9906 21.5367 26.9276 21.5997C26.8646 21.6627 26.7793 21.6983 26.6902 21.6987H24.1891C24.1 21.6983 24.0148 21.6627 23.9518 21.5997C23.8888 21.5367 23.8532 21.4514 23.8527 21.3623V18.8613ZM24.1891 22.9846C23.2939 22.9846 22.5615 22.2575 22.5615 21.3623V18.8613C22.5615 17.9661 23.2939 17.2337 24.1891 17.2337H26.6902C27.5854 17.2337 28.3124 17.9661 28.3124 18.8613V21.3623C28.3124 22.2575 27.5854 22.9846 26.6902 22.9846H24.1891Z" fill="#175730"/>
</svg>
