<svg width="48" height="49" viewBox="0 0 48 49" fill="none" xmlns="http://www.w3.org/2000/svg">
<path d="M40.8138 35.3676L39.3416 35.1898C51.3311 23.5873 42.9491 2.98634 26.2436 3.01859C23.4565 3.01299 20.7036 3.63228 18.1874 4.83092C15.6712 6.02957 13.4558 7.77706 11.7041 9.94484C11.5787 10.0994 11.52 10.2974 11.5406 10.4953C11.5613 10.6932 11.6597 10.8748 11.8143 11.0001C11.9689 11.1254 12.1669 11.1842 12.3648 11.1635C12.5627 11.1428 12.7442 11.0444 12.8696 10.8898C14.4811 8.89594 16.5191 7.28866 18.8337 6.1862C21.1483 5.08374 23.6806 4.51416 26.2443 4.51934C41.6643 4.49459 49.3458 23.5393 38.2233 34.1856L38.0853 32.6046C38.068 32.4063 37.9726 32.223 37.8202 32.095C37.6677 31.967 37.4706 31.9048 37.2723 31.9221C37.074 31.9394 36.8907 32.0348 36.7627 32.1872C36.6347 32.3397 36.5725 32.5368 36.5898 32.7351L36.8591 35.8011C36.8738 35.9727 36.9472 36.1339 37.0668 36.2578C37.1865 36.3817 37.3451 36.4606 37.5161 36.4813L40.6338 36.8578C40.8289 36.8767 41.0237 36.8186 41.1765 36.6958C41.3293 36.573 41.428 36.3952 41.4515 36.2006C41.475 36.006 41.4215 35.8099 41.3023 35.6542C41.1832 35.4986 41.0078 35.3957 40.8138 35.3676ZM32.8758 34.1931C32.5878 33.9091 32.2412 33.6916 31.8602 33.5559C31.4792 33.4201 31.0731 33.3695 30.6704 33.4076C30.2677 33.4456 29.8783 33.5713 29.5294 33.776C29.1806 33.9806 28.8807 34.2592 28.6511 34.5921C28.4554 34.8937 28.2006 35.1524 27.902 35.3526C27.6034 35.5528 27.2673 35.6903 26.9141 35.7568C26.5595 35.8246 26.1949 35.8204 25.842 35.7444C25.489 35.6684 25.155 35.5221 24.8598 35.3143C22.5496 33.603 20.3863 31.7016 18.3926 29.6301C16.2943 27.614 14.3728 25.4217 12.6491 23.0773C12.4567 22.7877 12.3236 22.4627 12.2575 22.1213C12.1915 21.7799 12.1937 21.4288 12.2641 21.0883C12.3346 20.7477 12.4718 20.4245 12.6679 20.1373C12.864 19.8502 13.115 19.6047 13.4066 19.4151C13.7468 19.1889 14.0328 18.8902 14.2441 18.5405C14.4553 18.1908 14.5866 17.7987 14.6286 17.3923C14.6705 16.9859 14.622 16.5752 14.4866 16.1897C14.3512 15.8043 14.1322 15.4535 13.8453 15.1626L10.0128 11.3301C9.74208 11.0631 9.41933 10.8546 9.06463 10.7177C8.70992 10.5807 8.33083 10.5182 7.95093 10.5339C7.57102 10.5497 7.19841 10.6434 6.85626 10.8093C6.51412 10.9751 6.20974 11.2096 5.96206 11.4981C4.03645 13.5477 2.97903 16.2631 3.01147 19.0751C3.04391 21.8872 4.16368 24.5775 6.13605 26.5821L21.4406 41.8866C23.3585 43.7836 25.9151 44.8969 28.6103 45.009C31.3056 45.1211 33.9457 44.2238 36.0146 42.4926C36.4327 42.2322 36.7845 41.878 37.042 41.458C37.2995 41.0381 37.4557 40.5639 37.4981 40.0731C37.5133 39.6924 37.4497 39.3127 37.3112 38.9577C37.1727 38.6028 36.9624 38.2803 36.6933 38.0106L32.8758 34.1931ZM35.5563 40.9146C33.795 42.5983 31.4475 43.5305 29.011 43.5138C26.5744 43.4972 24.24 42.533 22.5018 40.8253L7.1973 25.5216C5.56455 23.8707 4.60628 21.6701 4.50988 19.3502C4.41348 17.0302 5.18588 14.7578 6.67606 12.9771C7.02706 12.5818 7.4073 11.9961 8.01256 12.0246C8.18586 12.0165 8.35894 12.0448 8.52057 12.1079C8.6822 12.1709 8.82878 12.2673 8.95081 12.3906L12.7841 16.2238C12.9146 16.3562 13.0142 16.5158 13.0758 16.6912C13.1375 16.8666 13.1595 17.0534 13.1405 17.2384C13.1214 17.4233 13.0617 17.6017 12.9656 17.7608C12.8695 17.92 12.7393 18.0559 12.5846 18.1588C12.1266 18.4587 11.7327 18.8464 11.4255 19.2994C11.1183 19.7525 10.904 20.2619 10.7949 20.7983C10.6858 21.3347 10.6842 21.8874 10.79 22.4244C10.8959 22.9615 11.1071 23.4722 11.4116 23.9271C13.1869 26.3477 15.1674 28.6108 17.3313 30.6913C19.3878 32.826 21.6193 34.7849 24.0026 36.5473C24.46 36.8648 24.9759 37.0883 25.5204 37.2048C26.0648 37.3213 26.627 37.3285 27.1743 37.226C27.7216 37.1235 28.2431 36.9133 28.7085 36.6077C29.1739 36.3021 29.574 35.9071 29.8856 35.4456C29.9892 35.2922 30.1253 35.1634 30.2843 35.0686C30.4433 34.9737 30.6213 34.9151 30.8055 34.8968C30.9898 34.8786 31.1758 34.9011 31.3503 34.9629C31.5248 35.0247 31.6836 35.1242 31.8153 35.2543L35.6328 39.0718C35.7544 39.1949 35.8494 39.3417 35.9119 39.5031C35.9743 39.6645 36.0028 39.837 35.9956 40.0099C35.9884 40.1828 35.9457 40.3523 35.8701 40.508C35.7946 40.6636 35.6877 40.802 35.5563 40.9146Z" fill="#175730"/>
<path d="M27.7453 30.4087C30.4312 30.4058 33.0062 29.3374 34.9054 27.4381C36.8046 25.5388 37.8727 22.9637 37.8755 20.2777C37.3198 6.83849 18.1685 6.84224 17.6143 20.2777C17.617 22.9638 18.6853 25.539 20.5846 27.4384C22.484 29.3377 25.0592 30.406 27.7453 30.4087ZM19.8733 19.5277H19.1533C19.3321 17.5083 20.2157 15.6161 21.6493 14.1825C23.0829 12.749 24.975 11.8654 26.9945 11.6865V12.4065C26.9945 12.6055 27.0736 12.7964 27.2143 12.9371C27.355 13.0778 27.5459 13.1569 27.7449 13.1569C27.9439 13.1569 28.1348 13.0778 28.2755 12.9371C28.4162 12.7964 28.4953 12.6055 28.4953 12.4065V11.6865C30.5147 11.8654 32.4069 12.749 33.8405 14.1825C35.274 15.6161 36.1576 17.5083 36.3365 19.5277H35.6165C35.4175 19.5277 35.2266 19.6068 35.0859 19.7475C34.9452 19.8882 34.8661 20.0791 34.8661 20.2781C34.8661 20.4771 34.9452 20.668 35.0859 20.8087C35.2266 20.9494 35.4175 21.0285 35.6165 21.0285H36.3365C36.1576 23.048 35.274 24.9401 33.8405 26.3737C32.4069 27.8073 30.5147 28.6909 28.4953 28.8697V28.1497C28.4953 27.9508 28.4162 27.7601 28.2756 27.6194C28.1349 27.4788 27.9442 27.3997 27.7453 27.3997C27.5463 27.3997 27.3556 27.4788 27.2149 27.6194C27.0743 27.7601 26.9953 27.9508 26.9953 28.1497V28.8697C24.9757 28.691 23.0833 27.8075 21.6496 26.3739C20.2159 24.9403 19.3322 23.0481 19.1533 21.0285H19.8733C20.0723 21.0285 20.2631 20.9494 20.4039 20.8087C20.5446 20.668 20.6236 20.4771 20.6236 20.2781C20.6236 20.0791 20.5446 19.8882 20.4039 19.7475C20.2631 19.6068 20.0723 19.5277 19.8733 19.5277Z" fill="#175730"/>
<path d="M27.7451 21.0284H31.3541C31.5531 21.0284 31.744 20.9493 31.8847 20.8086C32.0254 20.6679 32.1045 20.477 32.1045 20.278C32.1045 20.079 32.0254 19.8882 31.8847 19.7474C31.744 19.6067 31.5531 19.5276 31.3541 19.5276H28.4951V14.5146C28.4951 14.3157 28.4161 14.125 28.2754 13.9843C28.1348 13.8437 27.944 13.7646 27.7451 13.7646C27.5462 13.7646 27.3554 13.8437 27.2148 13.9843C27.0741 14.125 26.9951 14.3157 26.9951 14.5146V20.2776C26.995 20.3762 27.0143 20.4738 27.052 20.5649C27.0896 20.656 27.1449 20.7387 27.2145 20.8085C27.2842 20.8782 27.3669 20.9335 27.4579 20.9712C27.549 21.009 27.6466 21.0284 27.7451 21.0284Z" fill="#175730"/>
</svg>
